<?xml version="1.0" encoding="utf-8"?>
<!-- Generator: Adobe Illustrator 24.2.2, SVG Export Plug-In . SVG Version: 6.00 Build 0)  -->
<svg version="1.1" id="Layer_1" xmlns="http://www.w3.org/2000/svg" xmlns:xlink="http://www.w3.org/1999/xlink" x="0px" y="0px"
	 viewBox="0 0 1000 1000" style="enable-background:new 0 0 1000 1000;" xml:space="preserve">
<style type="text/css">
	.st0{fill:#FFFFFF;}
	.st1{fill:#F2E7D6;}
	.st2{fill:#ECC190;}
	.st3{fill:#EBC18B;}
</style>
<path class="st0" d="M241.74,371.75c0,20.04,2.52,39.48,7.25,58.05c49.13-73.04,132.54-121.1,227.19-121.1
	s178.06,48.06,227.19,121.1c4.73-18.56,7.25-38.01,7.25-58.05c0-129.48-104.96-234.44-234.44-234.44S241.74,242.27,241.74,371.75z"
	/>
<path class="st1" d="M657.63,377.55c0.12-2.67,0.19-5.36,0.19-8.06c0-100.32-81.33-181.65-181.65-181.65
	s-181.65,81.33-181.65,181.65c0,2.7,0.07,5.39,0.19,8.06c48.29-42.83,111.83-68.85,181.46-68.85S609.34,334.72,657.63,377.55z"/>
<path class="st2" d="M431.7,737.21l-80.05-99.44c3.79,78.28,49.76,147.92,118.2,182.92c0.38,0.2,0.79,0.32,1.22,0.38l5.04,0.69
	c3.72,0.51,5.77-4.13,2.92-6.58C456.88,796.16,434.42,761.83,431.7,737.21z"/>
<path class="st0" d="M479.71,399.31c-122.56-1.95-223.1,98.72-221,221.28c1.61,93.32,61.99,172.31,145.71,201.55
	c0.4,0.14,0.83,0.21,1.26,0.21h5.09c3.76,0,5.15-4.88,1.99-6.92c-28.49-18.38-60.23-57.16-58.73-81.8c0.33-5.49,4.67-8.99,6.97-5.57
	c15.4,22.84,39.71,35.14,57.64,35.14c28.94,0,37.93-53.79,35.36-86.79c-2.95-37.92-17.99-71.49-40.24-82.75
	c-2.58-1.3-2.68-4.96-0.25-6.51c18.37-11.66,39.79-18.35,62.66-18.35c68.18,0,123.45,59.42,123.45,132.73
	c0,48.37-24.07,90.7-60.03,113.89c-3.16,2.04-1.74,6.92,2.01,6.92h5.06c0.43,0,0.86-0.07,1.26-0.21
	c84.86-29.65,145.75-110.39,145.75-205.37C693.67,497.83,598.2,401.19,479.71,399.31z M620.33,545.89
	c-7.64-7.85-16.69-14.69-27.25-20.24c-65.94-34.62-166.48-6.55-206.93,59.7c1.3-2.96,2.71-5.9,4.23-8.8
	c36.14-68.84,139.38-97.57,208.22-61.43c-25.58-27.89-61.38-45.22-101.01-45.22c-74.47,0-135.43,61.19-140.44,138.65
	c-0.22-3.23-0.34-6.48-0.34-9.76c0-77.75,63.03-140.79,140.79-140.79c52.71,0,98.64,28.97,122.77,71.85
	c5.79,10.28,10.32,21.36,13.39,33.04C629.89,556.82,625.42,551.13,620.33,545.89z"/>
<ellipse transform="matrix(0.8636 -0.5041 0.5041 0.8636 -300.5159 286.9135)" cx="380.07" cy="698.93" rx="4.5" ry="8.71"/>
<ellipse transform="matrix(0.695 -0.719 0.719 0.695 -97.8266 567.8177)" class="st2" cx="620.36" cy="399.21" rx="4.5" ry="8.71"/>
<path class="st2" d="M357.93,752.68c-2.78-6.82-4.25-13.31-3.9-19.04c0.29-4.72,3.54-7.96,5.91-6.6c0.19-0.05,0.52,0.24,1.06,1.02
	c-16.08-23.14-15.66-63.43-15.66-63.43s-13.7,44.14,12.58,88.06C357.93,752.7,357.93,752.69,357.93,752.68z"/>
<g>
	<path class="st3" d="M212.76,508.1c5.48-19.49,13.06-38.09,22.48-55.55c-8.97-26.03-13.86-53.97-13.86-83.06
		c0-73.4,31.05-139.54,80.72-186.03c-11.02,6.3-21.66,13.19-31.89,20.61c-78.75,61.5-112.1,169.21-74.94,267.6
		C200.13,484.51,206.01,496.66,212.76,508.1z"/>
	<path class="st3" d="M302.15,183.42c-0.01,0.01-0.03,0.01-0.04,0.02c0,0-0.01,0.01-0.01,0.01
		C302.12,183.44,302.14,183.43,302.15,183.42L302.15,183.42z"/>
	<path class="st3" d="M202.57,582.3c0-16.09,1.4-31.86,4.07-47.19c-12.61-17.62-23.18-37.14-31.2-58.37
		c-19.62-51.93-21.14-106.25-7.73-156.05c-27.12,49.81-42.54,106.91-42.54,167.62c0,130.16,70.85,243.78,176.09,304.38
		C240.96,742.5,202.57,666.89,202.57,582.3z"/>
</g>
<path class="st0" d="M241.79,371.69c0,20.03,2.52,39.47,7.25,58.03c49.13-73,132.52-121.03,227.14-121.03
	c94.61,0,178,48.02,227.14,121.02c4.73-18.56,7.24-38,7.24-58.03c0-128.04-102.68-232.09-230.19-234.33l0,0
	c-1.4-0.02-2.79-0.05-4.19-0.05c-2.23,0-4.44,0.04-6.66,0.1C343.15,140.93,241.79,244.47,241.79,371.69z"/>
<path class="st1" d="M476.17,169.8c-111.5,0-201.89,90.39-201.89,201.89c0,8.25,0.51,16.38,1.47,24.37
	c49.96-53.74,121.26-87.37,200.42-87.37c79.16,0,150.46,33.63,200.42,87.38c0.96-7.99,1.47-16.13,1.47-24.38
	C678.06,260.19,587.67,169.8,476.17,169.8z"/>
<g>
	<path class="st3" d="M476.17,137.31c1.4,0,2.79,0.02,4.19,0.03v0.02c127.51,2.24,230.19,106.28,230.19,234.33
		c0,20.03-2.52,39.47-7.24,58.03c29.34,43.59,46.47,96.09,46.47,152.58c0,84.59-38.39,160.2-98.7,210.39
		c105.24-60.6,176.09-174.22,176.09-304.38C827.17,294.46,670.03,137.31,476.17,137.31z"/>
</g>
</svg>
